<mxfile host="app.diagrams.net" agent="Mozilla/5.0 (X11; Ubuntu; Linux x86_64; rv:136.0) Gecko/20100101 Firefox/136.0" version="26.1.2">
  <diagram name="Page-1" id="HbrdC2oWqZAlC9oB9D4p">
    <mxGraphModel dx="997" dy="573" grid="1" gridSize="10" guides="1" tooltips="1" connect="1" arrows="1" fold="1" page="1" pageScale="1" pageWidth="850" pageHeight="1100" math="0" shadow="0">
      <root>
        <mxCell id="0" />
        <mxCell id="1" parent="0" />
        <mxCell id="SGaQqDNbS24yFxYnhTaT-1" value="&lt;h3 style=&quot;margin-top: 14.04px;&quot;&gt;SmartBus-Cashless-Payment&lt;/h3&gt;" style="rounded=1;whiteSpace=wrap;html=1;glass=1;shadow=1;labelPosition=center;verticalLabelPosition=top;align=center;verticalAlign=bottom;fillColor=#fff2cc;strokeColor=#d6b656;" vertex="1" parent="1">
          <mxGeometry x="255" y="50" width="340" height="500" as="geometry" />
        </mxCell>
        <mxCell id="SGaQqDNbS24yFxYnhTaT-9" style="edgeStyle=orthogonalEdgeStyle;rounded=1;orthogonalLoop=1;jettySize=auto;html=1;curved=0;" edge="1" parent="1">
          <mxGeometry relative="1" as="geometry">
            <mxPoint x="120" y="210" as="sourcePoint" />
            <mxPoint x="365" y="120" as="targetPoint" />
            <Array as="points">
              <mxPoint x="243" y="210" />
              <mxPoint x="243" y="120" />
            </Array>
          </mxGeometry>
        </mxCell>
        <mxCell id="SGaQqDNbS24yFxYnhTaT-2" value="Admin" style="shape=umlActor;verticalLabelPosition=bottom;verticalAlign=top;html=1;outlineConnect=0;" vertex="1" parent="1">
          <mxGeometry x="80" y="160" width="40" height="160" as="geometry" />
        </mxCell>
        <mxCell id="SGaQqDNbS24yFxYnhTaT-12" style="edgeStyle=orthogonalEdgeStyle;rounded=1;orthogonalLoop=1;jettySize=auto;html=1;exitX=0;exitY=0.3333333333333333;exitDx=0;exitDy=0;exitPerimeter=0;entryX=1;entryY=0.5;entryDx=0;entryDy=0;curved=0;" edge="1" parent="1" source="SGaQqDNbS24yFxYnhTaT-3" target="SGaQqDNbS24yFxYnhTaT-7">
          <mxGeometry relative="1" as="geometry" />
        </mxCell>
        <mxCell id="SGaQqDNbS24yFxYnhTaT-13" style="edgeStyle=orthogonalEdgeStyle;rounded=1;orthogonalLoop=1;jettySize=auto;html=1;exitX=0;exitY=0.3333333333333333;exitDx=0;exitDy=0;exitPerimeter=0;entryX=1;entryY=0.5;entryDx=0;entryDy=0;curved=0;" edge="1" parent="1" source="SGaQqDNbS24yFxYnhTaT-3" target="SGaQqDNbS24yFxYnhTaT-5">
          <mxGeometry relative="1" as="geometry" />
        </mxCell>
        <mxCell id="SGaQqDNbS24yFxYnhTaT-3" value="Actor" style="shape=umlActor;verticalLabelPosition=bottom;verticalAlign=top;html=1;outlineConnect=0;" vertex="1" parent="1">
          <mxGeometry x="720" y="160" width="40" height="160" as="geometry" />
        </mxCell>
        <mxCell id="SGaQqDNbS24yFxYnhTaT-4" value="Web App" style="ellipse;whiteSpace=wrap;html=1;" vertex="1" parent="1">
          <mxGeometry x="365" y="90" width="120" height="80" as="geometry" />
        </mxCell>
        <mxCell id="SGaQqDNbS24yFxYnhTaT-5" value="Android Scanner App" style="ellipse;whiteSpace=wrap;html=1;" vertex="1" parent="1">
          <mxGeometry x="365" y="420" width="120" height="80" as="geometry" />
        </mxCell>
        <mxCell id="SGaQqDNbS24yFxYnhTaT-7" value="Android Agent App" style="ellipse;whiteSpace=wrap;html=1;" vertex="1" parent="1">
          <mxGeometry x="365" y="260" width="120" height="80" as="geometry" />
        </mxCell>
      </root>
    </mxGraphModel>
  </diagram>
</mxfile>
